<?xml version="1.0" standalone="no"?><!DOCTYPE svg PUBLIC "-//W3C//DTD SVG 1.1//EN" "http://www.w3.org/Graphics/SVG/1.1/DTD/svg11.dtd"><svg t="1533296213264" class="icon" style="" viewBox="0 0 1024 1024" version="1.1" xmlns="http://www.w3.org/2000/svg" p-id="7352" xmlns:xlink="http://www.w3.org/1999/xlink" width="30" height="30"><defs><style type="text/css"></style></defs><path d="M512 0C229.2224 0 0 229.248 0 512c0 282.7776 229.2224 512 512 512 282.752 0 512-229.1968 512-512C1024 229.248 794.752 0 512 0zM512 980.8128C253.056 980.8128 43.1872 770.944 43.1872 512 43.1872 253.0816 253.056 43.2128 512 43.2128c258.9184 0 468.8128 209.8688 468.8128 468.8128C980.8128 770.944 770.8928 980.8128 512 980.8128z" p-id="7353"></path><path d="M255.1808 256l179.2 334.3872L768.7936 768l-177.6128-334.3872L255.1808 256zM512.7936 590.4128c-43.2896 0-78.4128-35.0976-78.4128-78.3872 0-43.2896 35.0976-78.4128 78.4128-78.4128 43.3152 0 78.4128 35.0976 78.4128 78.4128C591.2064 555.2896 556.1088 590.4128 512.7936 590.4128z" p-id="7354"></path></svg>