<?xml version="1.0" standalone="no"?><!DOCTYPE svg PUBLIC "-//W3C//DTD SVG 1.1//EN" "http://www.w3.org/Graphics/SVG/1.1/DTD/svg11.dtd"><svg t="1533370094304" class="icon" style="" viewBox="0 0 1024 1024" version="1.1" xmlns="http://www.w3.org/2000/svg" p-id="6929" xmlns:xlink="http://www.w3.org/1999/xlink" width="25" height="25"><defs><style type="text/css"></style></defs><path d="M816.781566 321.761287l-105.7169 0 0.010239-131.119672c0-43.781643-28.29015-72.051315-72.082031-72.051315-10.085341 0-14.262822 0-24.348163 4.914684l-406.393169 106.679359c-54.317497 14.836202-98.498458 70.013769-98.498458 123.000205l0 472.403518c0 53.744117 43.730448 97.474565 97.474565 97.474565l609.553917 0c53.754356 0 97.464326-43.730448 97.464326-97.474565l0-406.352213C914.245892 365.491735 870.535922 321.761287 816.781566 321.761287zM668.501455 321.761287l-461.273806 0c-14.56999 0-29.04783 4.812295-44.385739 9.931757l-8.426635 2.784988 3.276456-8.221857c11.262817-28.167282 33.215072-48.09223 58.843101-53.303843l406.690098-106.76127 15.552927-0.051195c2.744032-0.624574 5.344719-0.931742 7.720149-0.931742 16.238935 0 22.00345 13.70992 22.00345 25.433489L668.501455 321.761287zM736.314879 679.775536c0 11.754286-9.532439 21.307203-21.307203 21.307203s-21.307203-9.552917-21.307203-21.307203l0-137.641868c0-11.764525 9.532439-21.307203 21.307203-21.307203s21.307203 9.542678 21.307203 21.307203L736.314879 679.775536z" p-id="6930" fill="#8017f7"></path></svg>