<?xml version="1.0" standalone="no"?><!DOCTYPE svg PUBLIC "-//W3C//DTD SVG 1.1//EN" "http://www.w3.org/Graphics/SVG/1.1/DTD/svg11.dtd"><svg t="1533465114532" class="icon" style="" viewBox="0 0 1025 1024" version="1.1" xmlns="http://www.w3.org/2000/svg" p-id="4887" xmlns:xlink="http://www.w3.org/1999/xlink" width="50.048828125" height="50"><defs><style type="text/css"></style></defs><path d="M512.002197 0C229.231384 0 0 200.585327 0 447.986815 0 589.412176 75.040703 715.343355 192.004195 797.463916l0 226.538481 224.312041-136.047545c31.042301 5.091145 62.929631 8.096689 95.685961 8.096689 282.770814 0 512.002197-200.593318 512.002197-448.065724C1024.003396 200.592319 794.781002 0 512.002197 0zM255.98262 512.038156c-35.334365 0-63.979424-28.674025-63.979424-64.044349 0-35.306398 28.645058-63.980423 63.979424-63.980423 35.369325 0 64.015382 28.674025 64.015382 63.980423C319.999001 483.364131 291.360935 512.038156 255.98262 512.038156zM512.002197 512.038156c-35.334365 0-64.013385-28.674025-64.013385-64.044349 0-35.306398 28.679019-63.980423 64.013385-63.980423 35.342356 0 64.014383 28.674025 64.014383 63.980423C576.016581 483.364131 547.344554 512.038156 512.002197 512.038156zM768.020776 512.038156c-35.370324 0-64.006393-28.674025-64.006393-64.044349 0-35.306398 28.638066-63.980423 64.006393-63.980423 35.342356 0 63.980423 28.674025 63.980423 63.980423C832.001199 483.364131 803.363132 512.038156 768.020776 512.038156z" p-id="4888" fill="#ffffff"></path></svg>