<?xml version="1.0" standalone="no"?><!DOCTYPE svg PUBLIC "-//W3C//DTD SVG 1.1//EN" "http://www.w3.org/Graphics/SVG/1.1/DTD/svg11.dtd"><svg t="1533466167579" class="icon" style="" viewBox="0 0 1025 1024" version="1.1" xmlns="http://www.w3.org/2000/svg" p-id="13809" xmlns:xlink="http://www.w3.org/1999/xlink" width="50.048828125" height="50"><defs><style type="text/css"></style></defs><path d="M510.244373 276.001587c41.958801 0 78.408846 10.590013 105.406379 30.620037 27.753784 20.591275 43.042553 50.000061 43.042553 82.812601 0 55.107567-39.848799 75.220092-82.03135 96.518868-39.336298 19.848774-83.911352 42.348802-83.911352 97.377619l0 59.946323c0 6.325008 5.141256 11.475014 11.460014 11.475014 6.323758 0 11.465014-5.150006 11.465014-11.475014l0-59.946323c0-40.9163 33.03754-57.59757 71.293837-76.913844 44.370054-22.378777 94.653866-47.745058 94.653866-116.982643 0-80.288848-70.473836-136.362666-171.377709-136.362666-73.54009 0-138.217669 41.850051-160.937696 104.141377-5.453757 14.970018-9.188761 38.012546-5.233756 55.736318 1.157501 5.181256 5.888757 8.946261 11.240014 8.946261 0.825001 0 1.665002-0.08875 2.485003-0.26875 6.133757-1.372502 10.030012-7.525009 8.657511-13.701267-2.510003-11.240014-0.702501-28.867535 4.395005-42.856302C387.016722 320.732892 436.386783 276.001587 510.244373 276.001587L510.244373 276.001587z" p-id="13810" fill="#ffffff"></path><path d="M504.219366 723.772134c-13.002516 0-23.583779 10.576263-23.583779 23.577529 0 13.002516 10.581263 23.578779 23.583779 23.578779 13.002516 0 23.578779-10.576263 23.578779-23.578779C527.798144 734.348396 517.221881 723.772134 504.219366 723.772134L504.219366 723.772134z" p-id="13811" fill="#ffffff"></path><path d="M512.026875 0C229.23903 0 0 229.23903 0 512.026875 0 794.77597 229.23903 1024 512.026875 1024c282.779095 0 512.003125-229.22403 512.003125-511.973125C1024.03 229.23903 794.80597 0 512.026875 0zM504.219366 796.450972c-27.075033 0-49.10631-22.026277-49.10631-49.10131s22.031277-49.10006 49.10631-49.10006 49.10131 22.025027 49.10131 49.10006S531.294399 796.450972 504.219366 796.450972zM598.466981 529.199396c-41.562551 20.986276-57.27007 31.088788-57.27007 54.126316l0 59.946323c0 20.400025-16.59127 36.997545-36.987545 36.997545-20.390025 0-36.982545-16.59627-36.982545-36.997545L467.22682 583.325712c0-70.737586 56.597569-99.301371 97.92512-120.156397 48.335059-24.39878 68.017583-37.900046 68.017583-73.73509 0-51.757563-50.551312-87.910107-122.92515-87.910107-61.518825 0-102.295125 36.303794-115.415141 72.285088-3.647504 10.015012-4.736256 22.856278-3.461254 28.563785 4.428755 19.912524-8.15001 39.722548-28.037534 44.165054-2.656253 0.586251-5.341257 0.880001-8.01751 0.880001-17.192521 0-32.39254-12.153765-36.147544-28.902535-5.420007-24.29628-0.36625-52.113814 6.162508-70.043836 26.386282-72.328838 100.697623-120.922648 184.916476-120.922648 56.157569 0 104.830128 15.381269 140.762672 44.482554 36.201294 29.316286 56.137569 71.011337 56.137569 117.402643C707.144613 474.385579 644.332037 506.065618 598.466981 529.199396z" p-id="13812" fill="#ffffff"></path><path d="M512.026875 999.03622" p-id="13813" fill="#ffffff"></path></svg>