<?xml version="1.0" standalone="no"?><!DOCTYPE svg PUBLIC "-//W3C//DTD SVG 1.1//EN" "http://www.w3.org/Graphics/SVG/1.1/DTD/svg11.dtd"><svg t="1533349526082" class="icon" style="" viewBox="0 0 1024 1024" version="1.1" xmlns="http://www.w3.org/2000/svg" p-id="6938" xmlns:xlink="http://www.w3.org/1999/xlink" width="25" height="25"><defs><style type="text/css"></style></defs><path d="M422.639275 253.04418l112.774483-30.91408c5.439896-1.49198 8.641821-7.111978 7.14984-12.552897-1.490957-5.440919-7.110955-8.643867-12.552897-7.15291l-112.77346 30.91408c-5.440919 1.490957-8.643867 7.113001-7.151887 12.55392C411.577335 251.333212 417.198356 254.535137 422.639275 253.04418z" p-id="6939" fill="#1296db"></path><path d="M822.4184 707.309244l-6.149047-22.433942c15.798824-16.966417 22.711258-41.469484 16.134469-65.470107-5.533017-20.184715-19.466354-35.798321-36.985356-44.149523 17.460674-17.402345 25.337061-43.427068 18.355043-68.89716-6.310729-23.020296-23.296589-40.238446-44.141336-47.820122 14.066367-17.151635 19.895119-40.623209 13.585413-63.643506-6.310729-23.02132-23.293519-40.238446-44.141336-47.819099 14.06739-17.152658 19.896142-40.623209 13.58439-63.643506-7.907087-28.847002-32.564673-48.590672-60.597123-51.655474l-20.781302-75.8055c-8.970302-32.719192-42.761919-51.971675-75.482135-43.001373l-282.782481 77.517491c-32.719192 8.968256-51.971675 42.763966-43.002396 75.481112l8.374738 30.55183c-27.856441 16.690124-49.638537 39.891546-64.837704 61.293995-17.833157 25.111934-30.432103 80.244602-34.322713 109.772103-3.888564 29.528524 22.001083 85.723384 25.541723 93.178169 3.541663 7.453762 18.271132 31.129998-8.933463 60.307527-27.203572 29.178553-94.814436 69.435419-109.36585 84.657098-14.551414 15.222703-43.881416 66.704215 5.65479 110.797455 49.53723 44.094264 145.936767 122.526591 145.936767 122.526591s68.615751 50.846038 114.653273-13.452383c46.037523-64.300468 46.037523-64.300468 46.037523-64.300468l23.627117-40.070624c10.503215 30.31033 42.86425 47.682999 74.249051 39.078017l282.782481-77.516468C812.138266 773.822101 831.388702 740.02639 822.4184 707.309244zM777.268084 679.890778l-92.185562 25.272593c-23.307845 6.386454-47.381124-7.326872-53.769624-30.633694-6.389524-23.307845 7.323802-47.3801 30.632671-53.769624l92.185562-25.27157c23.305799-6.388501 47.3801 7.325849 53.769624 30.632671C814.288233 649.431046 800.574906 673.502277 777.268084 679.890778zM788.693298 513.234107c6.53995 23.855314-7.497765 48.493457-31.352055 55.032384l-111.443162 30.549783c-0.00921 0-0.01535 0.002047-0.021489 0.004093-23.854291 6.53995-48.493457-7.494695-55.032384-31.352055-6.537903-23.854291 7.498788-48.492434 31.354102-55.032384l111.463628-30.553876C757.516228 475.342102 782.154371 489.379816 788.693298 513.234107zM758.139421 401.769456c6.53995 23.854291-7.498788 48.493457-31.353079 55.032384L615.342158 487.352647c-0.007163 0.002047-33.45188 9.168824-33.459043 9.171893-23.855314 6.538927-48.494481-7.497765-55.032384-31.353079-6.53995-23.855314 7.498788-48.493457 31.353079-55.032384l144.903228-39.721677C726.960305 363.878474 751.598448 377.915166 758.139421 401.769456zM727.584522 290.305829c6.53995 23.854291-7.497765 48.493457-31.353079 55.032384l-111.444185 30.54876c-0.00614 0.002047-0.01228 0.004093-0.021489 0.00614-23.854291 6.53995-48.492434-7.497765-55.031361-31.352055-6.53995-23.855314 7.497765-48.493457 31.352055-55.032384l111.466698-30.555923C696.406428 252.414847 721.044572 266.451538 727.584522 290.305829zM309.709249 279.609209c-6.727215-24.538883 7.712659-49.885154 32.251541-56.611346l246.569722-67.592444c24.538883-6.726192 49.886177 7.713682 56.611346 32.252565l13.220093 48.222281-28.589129 7.837502c-7.100722-10.871605-20.640086-16.437367-33.834596-12.821003l-216.627782 59.383482c-6.338359 1.737574-11.659551 5.343705-15.548114 10.055007-9.970072-6.488785-31.107485-18.077727-52.873208-16.423041L309.709249 279.609209zM318.324464 442.191074l91.303472 333.073888-85.770456 121.546264c0 0-23.711028 36.4604-54.338582 14.896268s-30.627555-21.564132-30.627555-21.564132L115.021152 782.539646c0 0-24.425296-26.260084-1.772366-47.449685s22.652929-21.189601 22.652929-21.189601 59.048861-46.89403 75.881225-61.995983c16.832364-15.099906 53.952796-43.626613 30.610158-101.453646-23.342638-57.827033-24.62177-67.961858-24.834618-85.130889-0.211824-17.168008 15.115256-67.809385 25.859971-88.729857 0 0 17.743106-29.051663 44.487214-46.408983 9.485025-6.090718 19.072381-9.673313 26.347065-11.246135 14.101159-2.534729 26.894534 1.37123 37.785581 7.140631 1.559519 0.607844 3.936659 1.789763 6.935969 3.412726 0.407276 0.220011 0.825808 0.449231 1.255597 0.685615 0.318248 0.174985 0.635473 0.349971 0.964978 0.533143 0.315178 0.176009 0.639566 0.357134 0.963954 0.539282 0.315178 0.178055 0.636496 0.358157 0.960885 0.542352 0.338714 0.191358 0.674359 0.38067 1.022283 0.579191 0.381693 0.216941 0.776689 0.444115 1.169639 0.671289 0.581238 0.333598 1.174756 0.676405 1.782599 1.029446 0.334621 0.194428 0.669242 0.387833 1.013073 0.588401 0.415462 0.243547 0.837064 0.490164 1.26276 0.740874 0.322341 0.189312 0.649799 0.381693 0.978281 0.576121 0.448208 0.264013 0.893346 0.525979 1.350764 0.797156 0.216941 0.127913 0.442068 0.264013 0.662079 0.39295 0.937348 0.556679 1.895163 1.12973 2.874467 1.716084 0.318248 0.190335 0.635473 0.379647 0.956791 0.574075 0.509606 0.305969 1.023306 0.61603 1.542122 0.928139 0.337691 0.203638 0.679475 0.410346 1.02126 0.617054 1.781576 1.077541 3.615341 2.192945 5.495154 3.343141 0.356111 0.217964 0.712221 0.435928 1.071402 0.655939 0.544399 0.333598 1.089821 0.668219 1.641383 1.00591 0.403183 0.248663 0.810459 0.499373 1.216711 0.74906 39.146579 24.100908 94.250594 60.190871 94.250594 60.190871-7.609305 43.280736-29.442566 61.999053-77.083609 63.074547-2.935865 0.065492-5.815449 0.032746-8.636704-0.085958-10.647501-0.028653-36.650735-6.64842-36.650735-6.64842C337.373309 455.939193 322.417689 444.897719 318.324464 442.191074zM505.811556 820.717154c-24.538883 6.727215-49.886177-7.710612-56.612369-32.249495l-78.293157-285.611923c14.288424 2.51631 35.546587 2.622734 35.546587 2.622734l50.555419 184.420243c4.484128 16.358573 21.38096 25.987884 37.741579 21.503756l105.363699-28.885887c0.046049 0.178055 0.083911 0.354064 0.13303 0.530073 1.402953 5.121648 3.366677 9.940396 5.773494 14.432711-15.71389 5.581112-24.692379 22.426779-20.213367 38.770002 4.693906 17.119913 22.37766 27.196409 39.499619 22.502503 13.015432-3.568269 21.949918-14.643512 23.429619-27.270087 11.564383 3.168156 24.098861 3.384074 36.501332-0.017396l98.749048-27.068496c0.683569-0.186242 1.350764-0.404206 2.025123-0.60989 2.393513 22.090111-11.511171 43.279712-33.626865 49.340755L505.811556 820.717154z" p-id="6940" fill="#1296db"></path><path d="M145.722384 233.763045c2.978844 0.858554 6.001691 0.828878 8.788154 0.064468 5.28026-1.447978 9.704013-5.528923 11.333116-11.174504 17.247826-59.771315 62.303998-108.110253 120.526027-129.309064 8.43409-3.069919 12.782118-12.398378 9.711176-20.832468-3.070942-8.43409-12.384052-12.772908-20.832468-9.711176-67.944462 24.738427-120.518864 81.127715-140.635017 150.841473C132.123668 222.265176 137.09796 231.274364 145.722384 233.763045z" p-id="6941" fill="#1296db"></path><path d="M299.070958 128.501676c-46.844911 17.11275-83.170235 56.010665-97.17111 104.053867-2.511193 8.617261 2.438539 17.638729 11.056823 20.150946 2.990101 0.870834 6.02932 0.843204 8.829086 0.075725 5.265934-1.442862 9.680477-5.506411 11.320836-11.133571 11.117199-38.152948 39.946804-69.036329 77.115332-82.614579 8.43102-3.080152 12.768815-12.411681 9.689686-20.842701C316.833507 129.760342 307.500954 125.422548 299.070958 128.501676z" p-id="6942" fill="#1296db"></path><path d="M940.695201 717.068516c-3.085268-0.296759-6.051833 0.289596-8.651031 1.553379-4.922103 2.393513-8.520047 7.221472-9.083889 13.069667-5.954619 61.921281-41.346687 117.724215-94.677313 149.275815-7.724938 4.569062-10.283204 14.536065-5.713119 22.26305 4.572132 7.723915 14.521738 10.276041 22.265096 5.711072 62.232366-36.81651 103.536075-101.916181 110.482277-174.139086C956.177823 725.866902 949.63071 717.924 940.695201 717.068516z" p-id="6943" fill="#1296db"></path><path d="M885.697609 728.58992c0.883113-8.93244-5.643534-16.889669-14.573927-17.773805-3.101641-0.304945-6.084579 0.279363-8.694009 1.551332-4.910846 2.385327-8.501628 7.192819-9.079796 13.025665-3.908006 39.546691-26.564006 75.206866-60.600193 95.393627-7.720845 4.578272-10.267854 14.549368-5.688559 22.270213 4.578272 7.719822 14.549368 10.267854 22.270213 5.686513C852.228333 823.305095 880.775506 778.388093 885.697609 728.58992z" p-id="6944" fill="#1296db"></path></svg>