<?xml version="1.0" standalone="no"?><!DOCTYPE svg PUBLIC "-//W3C//DTD SVG 1.1//EN" "http://www.w3.org/Graphics/SVG/1.1/DTD/svg11.dtd"><svg t="1533466043991" class="icon" style="" viewBox="0 0 1024 1024" version="1.1" xmlns="http://www.w3.org/2000/svg" p-id="11204" xmlns:xlink="http://www.w3.org/1999/xlink" width="50" height="50"><defs><style type="text/css"></style></defs><path d="M516.28544 13.696c-277.5808 0-502.58944 225.03424-502.58944 502.58432 0 277.56544 225.00864 502.59968 502.58944 502.59968C793.87648 1018.88 1018.88 793.84576 1018.88 516.28032 1018.88 238.73024 793.87648 13.696 516.28544 13.696zM712.18176 583.27552c32.64 0 55.36768 15.33952 55.36768 54.24128 0 29.88544-15.54944 49.8176-48.18944 49.8176l-131.87584 0 0 78.03904c0 37.4272-30.40256 65.03936-71.19872 65.03936-40.82688 0-71.22944-27.61728-71.22944-65.03936l0-78.03904L316.89728 687.3344c-32.64 0-51.87584-24.85248-51.87584-54.71744 0-29.952 19.2-49.34656 51.87584-49.34656l128.15872 0L445.056 518.2464 316.89728 518.2464c-32.64 0-51.87584-23.0656-51.87584-52.99712 0-29.952 19.2-51.0464 51.87584-51.0464l124.02688 0.0512-129.73568-118.8352c-23.24992-21.27872-23.24992-55.82848 0-77.1072 23.22432-21.2992 60.92288-21.2992 84.18304 0l119.90528 109.86496 120.40192-110.30016c23.22432-21.29408 60.9536-21.29408 84.1728 0 23.28064 21.34528 23.28064 55.82848 0 77.1072l-129.87904 119.2192 125.71648 0c32.63488 0 51.8656 21.16608 51.8656 51.0464 0 29.93152-19.23072 52.99712-51.8656 52.99712l-128.19968 0 0 65.02912L712.18176 583.27552z" p-id="11205" fill="#ffffff"></path></svg>