<?xml version="1.0" standalone="no"?><!DOCTYPE svg PUBLIC "-//W3C//DTD SVG 1.1//EN" "http://www.w3.org/Graphics/SVG/1.1/DTD/svg11.dtd"><svg t="1533345841335" class="icon" style="" viewBox="0 0 1024 1024" version="1.1" xmlns="http://www.w3.org/2000/svg" p-id="2499" xmlns:xlink="http://www.w3.org/1999/xlink" width="25" height="25"><defs><style type="text/css"></style></defs><path d="M327.285 871.114l1.578-410.571-194.423 192.117c35.074 94.542 104.372 172.336 192.846 218.453zM365.151 134.683c-91.143 36.166-166.025 104.372-210.686 190.783l403.897 2.427-193.21-193.21zM677.903 140.508c-50.002-22.087-105.221-34.346-163.355-34.346-43.327 0-84.955 6.796-124.033 19.419l287.388 287.388v-272.46zM702.176 152.159v428.775l198.064-194.181c-32.768-101.702-104.736-185.685-198.064-234.595zM142.814 349.616c-21.603 49.637-33.618 104.372-33.618 161.898 0 40.050 5.825 78.765 16.626 115.417l279.013-275.737-262.022-1.578zM907.886 413.332l-282.533 277.072 251.828 2.427c27.307-54.613 42.72-116.144 42.72-181.316 0-33.86-4.127-66.75-12.015-98.182zM436.27 712.977v-0.971l-83.619-84.347-0.971 255.105c49.881 21.967 104.979 34.102 162.99 34.102 0.016 0 0.034 0 0.052 0 39.172 0 77.052-5.54 112.896-15.878l-190.377-188.011h-0.971zM650.596 893.443c90.051-32.039 165.418-95.149 213.356-176.34l-392.124-3.884 178.768 180.224z" fill="#f04e39" p-id="2500"></path></svg>