<?xml version="1.0" standalone="no"?><!DOCTYPE svg PUBLIC "-//W3C//DTD SVG 1.1//EN" "http://www.w3.org/Graphics/SVG/1.1/DTD/svg11.dtd"><svg t="1533303609926" class="icon" style="" viewBox="0 0 1024 1024" version="1.1" xmlns="http://www.w3.org/2000/svg" p-id="4369" xmlns:xlink="http://www.w3.org/1999/xlink" width="35" height="35"><defs><style type="text/css"></style></defs><path d="M864 128 545.28 128C534.4 126.08 522.88 129.28 514.56 137.6l-441.6 441.6C65.28 586.88 62.72 597.12 63.36 606.72 62.72 616.96 65.28 627.2 72.96 634.88l313.6 313.6c7.68 7.68 17.92 10.88 27.52 9.6 10.24 1.28 21.12-1.92 28.8-9.6l441.6-441.6c3.84-3.84 6.4-8.96 8.32-14.08C894.72 488.96 896 485.12 896 480l0-320C896 142.08 881.92 128 864 128zM640 448C604.8 448 576 419.2 576 384c0-35.2 28.8-64 64-64 35.2 0 64 28.8 64 64C704 419.2 675.2 448 640 448z" p-id="4370" fill="#ffffff"></path></svg>