<?xml version="1.0" standalone="no"?><!DOCTYPE svg PUBLIC "-//W3C//DTD SVG 1.1//EN" "http://www.w3.org/Graphics/SVG/1.1/DTD/svg11.dtd"><svg t="1533370017695" class="icon" style="" viewBox="0 0 1024 1024" version="1.1" xmlns="http://www.w3.org/2000/svg" p-id="6327" xmlns:xlink="http://www.w3.org/1999/xlink" width="25" height="25"><defs><style type="text/css"></style></defs><path d="M894.844033 190.940279H156.910426c-17.043595 0-30.633625 12.813925-30.633625 28.644216v581.292463c0 15.846673 13.589006 28.904283 30.633625 28.904283h737.933607c17.043595 0 30.999152-13.056586 30.999153-28.904283V219.585518c0-15.831315-13.955557-28.64524-30.999153-28.645239z m-30.494376 477.590286L657.914922 474.929208c-7.584942-6.757643-18.813893-6.757643-26.260611 0L469.288624 626.828739 359.371462 523.870926c-7.236821-7.239893-18.813893-7.239893-25.791671 0L187.785688 659.923785v-411.919306h676.563969v420.526086zM358.101845 479.814165c58.891836 0 107.333899-45.190203 107.333898-100.161582 0-55.001072-48.441039-100.437007-107.333898-100.437007-58.749516 0-107.07076 45.435935-107.07076 100.437007 0.001024 54.971379 48.321244 100.161582 107.07076 100.161582z m0-166.333243c38.723343 0 70.241605 29.359912 70.241605 66.172685 0 36.343833-31.518262 65.703745-70.241605 65.703745-38.460204 0-70.465836-29.359912-70.465836-65.703745 0.001024-36.812773 32.005631-66.172685 70.465836-66.172685z" fill="#e23dd3" p-id="6328"></path></svg>