<?xml version="1.0" standalone="no"?><!DOCTYPE svg PUBLIC "-//W3C//DTD SVG 1.1//EN" "http://www.w3.org/Graphics/SVG/1.1/DTD/svg11.dtd"><svg t="1533356941926" class="icon" style="" viewBox="0 0 1024 1024" version="1.1" xmlns="http://www.w3.org/2000/svg" p-id="13285" xmlns:xlink="http://www.w3.org/1999/xlink" width="25" height="25"><defs><style type="text/css"></style></defs><path d="M789.333333 957.866667l-42.666667-554.666667 0 0c-2.133333-10.666667-10.666667-19.2-21.333333-19.2l-149.333333 0 0-42.666667c0-93.866667-76.8-170.666667-170.666667-170.666667s-170.666667 76.8-170.666667 170.666667l0 42.666667L85.333333 384c-10.666667 0-19.2 8.533333-21.333333 19.2l0 0-42.666667 554.666667 0 0c0 0 0 2.133333 0 2.133333 0 12.8 8.533333 21.333333 21.333333 21.333333l725.333333 0c12.8 0 21.333333-8.533333 21.333333-21.333333C789.333333 960 789.333333 957.866667 789.333333 957.866667L789.333333 957.866667zM277.333333 341.333333c0-70.4 57.6-128 128-128 70.4 0 128 57.6 128 128l0 42.666667L277.333333 384 277.333333 341.333333zM104.533333 426.666667 234.666667 426.666667l0 91.733333c-12.8 6.4-21.333333 21.333333-21.333333 36.266667 0 23.466667 19.2 42.666667 42.666667 42.666667 23.466667 0 42.666667-19.2 42.666667-42.666667 0-14.933333-8.533333-29.866667-21.333333-36.266667L277.333333 426.666667l256 0 0 91.733333c-12.8 6.4-21.333333 21.333333-21.333333 36.266667 0 23.466667 19.2 42.666667 42.666667 42.666667 23.466667 0 42.666667-19.2 42.666667-42.666667 0-14.933333-8.533333-29.866667-21.333333-36.266667L576 426.666667l130.133333 0 32 426.666667L72.533333 853.333333 104.533333 426.666667zM66.133333 938.666667l4.266667-42.666667 672 0 4.266667 42.666667L66.133333 938.666667zM960 829.866667 960 829.866667l-42.666667-554.666667 0 0c-2.133333-10.666667-10.666667-19.2-21.333333-19.2l-149.333333 0 0-42.666667c0-93.866667-76.8-170.666667-170.666667-170.666667-64 0-119.466667 34.133333-149.333333 87.466667 14.933333 2.133333 29.866667 4.266667 44.8 10.666667C494.933333 106.666667 533.333333 85.333333 576 85.333333c70.4 0 128 57.6 128 128l0 42.666667-102.4 0c6.4 12.8 10.666667 27.733333 12.8 42.666667L704 298.666667l0 42.666667 21.333333 0c6.4 0 14.933333 2.133333 21.333333 4.266667L746.666667 298.666667l130.133333 0 32 426.666667-93.866667 0 4.266667 42.666667 93.866667 0 4.266667 42.666667-93.866667 0 4.266667 42.666667L938.666667 853.333333c12.8 0 21.333333-8.533333 21.333333-21.333333C960 832 960 829.866667 960 829.866667z" p-id="13286" fill="#f4466f"></path></svg>