<?xml version="1.0" standalone="no"?><!DOCTYPE svg PUBLIC "-//W3C//DTD SVG 1.1//EN" "http://www.w3.org/Graphics/SVG/1.1/DTD/svg11.dtd"><svg t="1533369553882" class="icon" style="" viewBox="0 0 1024 1024" version="1.1" xmlns="http://www.w3.org/2000/svg" p-id="4368" xmlns:xlink="http://www.w3.org/1999/xlink" width="25" height="25"><defs><style type="text/css"></style></defs><path d="M944.872727 702.836364h-195.490909c-74.472727 0-132.654545-60.509091-132.654545-132.654546v-114.036363c0-74.472727 60.509091-132.654545 132.654545-132.654546h195.490909c6.981818 0 13.963636 0 20.945455 2.327273v-34.909091C965.818182 207.127273 898.327273 139.636364 814.545455 139.636364H197.818182C114.036364 139.636364 46.545455 207.127273 46.545455 288.581818v444.509091C46.545455 816.872727 114.036364 884.363636 197.818182 884.363636H814.545455c83.781818 0 151.272727-67.490909 151.272727-148.945454v-34.909091c-6.981818 0-13.963636 2.327273-20.945455 2.327273z" fill="#1296db" p-id="4369"></path><path d="M749.381818 421.236364c-18.618182 0-32.581818 16.290909-32.581818 32.581818v114.036363c0 18.618182 16.290909 32.581818 32.581818 32.581819h195.490909c18.618182 0 32.581818-16.290909 32.581818-32.581819v-114.036363c0-18.618182-16.290909-32.581818-32.581818-32.581818h-195.490909z" fill="#1296db" p-id="4370"></path></svg>